<?xml version="1.0" encoding="UTF-8" standalone="no"?>
<!-- Created with Inkscape (http://www.inkscape.org/) -->

<svg
   width="24"
   height="24"
   viewBox="0 0 6.35 6.3500009"
   version="1.1"
   id="svg327"
   xmlns="http://www.w3.org/2000/svg"
   xmlns:svg="http://www.w3.org/2000/svg">
  <defs
     id="defs324" />
  <g
     id="layer1">
    <g
       id="g504"
       transform="matrix(0.59246585,0,0,0.59636175,-0.56295245,-0.5305217)">
      <path
         d="m 10.359075,4.4902918 c -0.5189797,-1.47945 -1.8164097,-2.51008 -4.0524597,-2.51008 -2.23052,0 -3.52795,1.03617 -4.052453,2.51008 -0.182195,0.51532 -0.270534,1.08603 -0.270534,1.68447 0,1.2301 0.165632,2.10005 0.452729,2.7151 0.706698,1.4960602 2.175288,1.5570202 3.864758,1.5570202 1.68944,0 3.15804,-0.061 3.8647397,-1.5570202 0.29263,-0.61505 0.45273,-1.485 0.45273,-2.7151 0.006,-0.59844 -0.0828,-1.16915 -0.25951,-1.68447 z m -0.7066697,3.95073 c -0.57973,1.21348 -1.8606,1.485 -3.34579,1.485 -1.48516,0 -2.76604,-0.27152 -3.34576,-1.485 -0.2098,-0.44326 -0.33126,-1.00291 -0.33126,-1.70662 0,-0.65384 0.0883,-1.26336 0.3423,-1.77313 0.44721,-0.90318 1.4134,-1.50161 3.33472,-1.50161 1.92135,0 2.88753,0.59843 3.33473,1.50161 0.25397,0.50977 0.34232,1.11929 0.34232,1.77313 0,0.69816 -0.12147,1.2578 -0.33126,1.70662 z"
         fill="#162c53"
         id="path2"
         style="stroke-width:0.264583" />
      <path
         d="m 1.6744103,6.1730118 c 0,-0.62061 0.09386,-1.19687 0.281572,-1.71219 0.0055,-0.0111 3e-6,-0.0222 -0.0055,-0.0332 -0.0055,-0.0111 -0.01657,-0.0111 -0.02761,-0.0111 -0.530024,0.11082 -0.92753901,1.09158 -0.92753901,2.2829 0,1.26336 0.45824801,2.29396 1.02691701,2.29396 0.03865,0 0.07178,-0.006 0.110424,-0.0111 0.01104,0 0.01656,-0.006 0.02208,-0.0166 0.0055,-0.0111 0.0055,-0.0166 0,-0.0277 -0.320222,-0.65937 -0.480332,-1.56255 -0.480332,-2.76495 z"
         fill="#162c53"
         id="path4"
         style="stroke-width:0.264583" />
      <path
         d="m 10.690365,4.4123618 c -0.0111,0 -0.0221,0 -0.0276,0.0111 -0.006,0.0111 -0.011,0.0222 -0.006,0.0333 0.18773,0.51532 0.28157,1.09158 0.28157,1.71217 0,1.20239 -0.15459,2.10558 -0.47482,2.76497 -0.005,0.0111 -0.005,0.0166 0,0.0277 0.006,0.0111 0.0111,0.0166 0.0221,0.0166 0.0331,0.006 0.0718,0.0111 0.11042,0.0111 0.56316,0 1.02692,-1.03063 1.02692,-2.29396 -0.005,-1.19134 -0.40304,-2.17209 -0.93305,-2.28291 z"
         fill="#162c53"
         id="path6"
         style="stroke-width:0.264583" />
    </g>
  </g>
</svg>
